<svg xmlns="http://www.w3.org/2000/svg" viewBox="0 0 1280 300" width="1280" height="300" role="img" aria-label="aguita — awa-omg. Small models. Real constraints.">
  <rect width="1280" height="300" fill="#efe9df"/>

  <!-- faint dot lattice, right third -->
  <g fill="#14130f" opacity="0.07">
    <g>
      <circle cx="880" cy="60" r="1.4"/><circle cx="920" cy="60" r="1.4"/><circle cx="960" cy="60" r="1.4"/><circle cx="1000" cy="60" r="1.4"/><circle cx="1040" cy="60" r="1.4"/><circle cx="1080" cy="60" r="1.4"/><circle cx="1120" cy="60" r="1.4"/><circle cx="1160" cy="60" r="1.4"/><circle cx="1200" cy="60" r="1.4"/>
      <circle cx="880" cy="100" r="1.4"/><circle cx="920" cy="100" r="1.4"/><circle cx="960" cy="100" r="1.4"/><circle cx="1000" cy="100" r="1.4"/><circle cx="1040" cy="100" r="1.4"/><circle cx="1080" cy="100" r="1.4"/><circle cx="1120" cy="100" r="1.4"/><circle cx="1160" cy="100" r="1.4"/><circle cx="1200" cy="100" r="1.4"/>
      <circle cx="880" cy="140" r="1.4"/><circle cx="920" cy="140" r="1.4"/><circle cx="960" cy="140" r="1.4"/><circle cx="1000" cy="140" r="1.4"/><circle cx="1040" cy="140" r="1.4"/><circle cx="1080" cy="140" r="1.4"/><circle cx="1120" cy="140" r="1.4"/><circle cx="1160" cy="140" r="1.4"/><circle cx="1200" cy="140" r="1.4"/>
      <circle cx="880" cy="180" r="1.4"/><circle cx="920" cy="180" r="1.4"/><circle cx="960" cy="180" r="1.4"/><circle cx="1000" cy="180" r="1.4"/><circle cx="1040" cy="180" r="1.4"/><circle cx="1080" cy="180" r="1.4"/><circle cx="1120" cy="180" r="1.4"/><circle cx="1160" cy="180" r="1.4"/><circle cx="1200" cy="180" r="1.4"/>
      <circle cx="880" cy="220" r="1.4"/><circle cx="920" cy="220" r="1.4"/><circle cx="960" cy="220" r="1.4"/><circle cx="1000" cy="220" r="1.4"/><circle cx="1040" cy="220" r="1.4"/><circle cx="1080" cy="220" r="1.4"/><circle cx="1120" cy="220" r="1.4"/><circle cx="1160" cy="220" r="1.4"/><circle cx="1200" cy="220" r="1.4"/>
    </g>
  </g>

  <rect x="80" y="88" width="15" height="15" fill="#e0402a"/>
  <text x="110" y="150" font-family="Georgia, 'Times New Roman', serif" font-size="102" font-weight="600" fill="#14130f" letter-spacing="-3">aguita</text>
  <text x="114" y="192" font-family="ui-monospace, 'JetBrains Mono', 'Courier New', monospace" font-size="17" fill="#e0402a" letter-spacing="5">@awa-omg</text>
  <text x="112" y="234" font-family="Georgia, 'Times New Roman', serif" font-size="30" fill="#5f5a4f">Small models. Real constraints.</text>
  <rect x="112" y="256" width="128" height="2" fill="#e0402a"/>
  <text x="112" y="286" font-family="ui-monospace, 'Courier New', monospace" font-size="13" fill="#8a8474" letter-spacing="3">ML &amp; SYSTEMS ENGINEER &#183; MEXICO &#183; OPCEANAI &#183; YUUKI-OS</text>
  <text x="1236" y="150" font-family="ui-monospace, 'Courier New', monospace" font-size="13" fill="#8a8474" letter-spacing="4" transform="rotate(90 1236 150)" text-anchor="middle">SNAPDRAGON 685 &#183; 8 GB</text>
</svg>
